<?xml version="1.0" encoding="UTF-8"?>
<!DOCTYPE svg PUBLIC "-//W3C//DTD SVG 1.1//EN" "http://www.w3.org/Graphics/SVG/1.1/DTD/svg11.dtd">
<!-- Creator: CorelDRAW X8 -->
<svg xmlns="http://www.w3.org/2000/svg" xml:space="preserve" width="198px" height="124px" version="1.1" style="shape-rendering:geometricPrecision; text-rendering:geometricPrecision; image-rendering:optimizeQuality; fill-rule:evenodd; clip-rule:evenodd"
viewBox="0 0 19800 12406"
 xmlns:xlink="http://www.w3.org/1999/xlink">
 <defs>
  <style type="text/css">
   <![CDATA[
    .str0 {stroke:#E6E6E6;stroke-width:90.198}
    .fil0 {fill:none}
    .fil2 {fill:#003091}
    .fil1 {fill:#F9DD16;fill-rule:nonzero}
   ]]>
  </style>
 </defs>
 <g id="Camada_x0020_1">
  <metadata id="CorelCorpID_0Corel-Layer"/>
  <g id="_2323542129696">
   <rect class="fil0 str0" x="45" y="45" width="19710" height="12316"/>
   <polygon class="fil1" points="4062,2956 15738,2956 15738,9450 4062,9450 "/>
   <g>
    <path class="fil2" d="M4652 8231l0 629 482 0c116,0 403,-13 403,-311 0,-162 -51,-274 -244,-299 23,-5 45,-11 64,-19l-705 0 705 0 0 0c106,-42 158,-129 158,-244 0,-251 -171,-305 -379,-305l-484 0 0 549zm1290 0l28 -127 32 127 66 267 -186 0 60 -267zm291 0l-100 -335 -294 0 -103 335 -193 629 243 0 60 -214 260 0 59 214 257 0 -189 -629zm454 0l0 -14 6 14 263 629 289 0 0 -629 -208 0 0 -335 208 0 0 335 -558 0zm229 0l-140 -335 -297 0 0 335 0 629 208 0 0 -629 -208 0 0 0 437 0zm679 0c9,-177 38,-212 111,-212 65,0 94,49 94,180l240 0c9,-211 -108,-327 -340,-327 -283,0 -341,147 -353,359l248 0 0 0zm779 0c8,-146 36,-212 121,-212 85,0 113,66 121,212l0 0c2,43 3,92 3,149 0,252 -14,361 -124,361 -110,0 -124,-109 -124,-361 0,-57 1,-106 3,-149l-20 0 20 0 0 0zm262 0l232 0c-12,-198 -71,-359 -373,-359 -302,0 -361,161 -372,359l0 0 0 0c-3,48 -3,99 -3,149 0,258 0,508 375,508 375,0 375,-250 375,-508 0,-50 0,-101 -2,-149l-232 0zm745 0l0 -188 100 0c95,0 122,79 131,188l245 0c-20,-215 -99,-338 -345,-338l-375 0 0 338 0 629 366 0c385,0 359,-340 359,-489 0,-50 -1,-97 -5,-140l-245 0c3,45 3,95 3,147 0,243 -23,335 -140,335l-94 0 0 -482zm827 0c9,-144 36,-208 121,-208 84,0 112,64 121,208 2,43 3,93 3,151 0,251 -14,360 -124,360 -110,0 -124,-109 -124,-360 0,-58 1,-108 3,-151zm242 0l251 0c-11,-196 -71,-354 -372,-354 -301,0 -361,158 -373,354l0 0 0 0c-2,49 -2,100 -2,151 0,257 0,506 375,506 375,0 375,-249 375,-506 0,-51 0,-102 -3,-151l-251 0zm1215 0c104,-43 156,-130 156,-244 0,-251 -171,-305 -379,-305l-484 0 0 549 0 629 482 0c116,0 403,-13 403,-311 0,-162 -51,-274 -244,-299 24,-5 46,-11 65,-19l1 0 0 0zm510 0l0 -187 84 0c70,0 132,52 132,147 0,14 -1,27 -3,40l-1 0 0 0c-11,61 -48,105 -101,102l-70 1 229 526 402 0 61 -214 260 0 59 214 584 0c161,0 325,-21 325,-271 0,-234 -276,-259 -379,-358l-1 0c-23,-24 -38,-50 -38,-85 0,-66 41,-102 110,-102l223 0 0 -149 -314 0c-258,0 -322,117 -322,268 0,24 3,47 10,68l117 0 -117 0c66,219 453,226 453,373 0,66 -35,110 -107,110l-331 0 -145 -483 -101 -335 -294 0 -103 335 -168 542 -171 -377c99,-18 151,-72 168,-165l-119 0 119 0c5,-24 7,-52 7,-83 1,-164 -97,-252 -249,-252l-460 0 0 335 0 629 251 0 0 -629 -251 0 0 0 251 0zm828 0l29 -127 31 127 66 268 -186 0 60 -268zm1469 0l0 -335 -245 0 0 335 0 629 245 0 0 -629 -245 0 0 0 245 0zm389 0l0 -335 -245 0 0 335 0 629 532 0 0 -146 -287 0 0 -483zm-9912 -67l0 -301 107 0c96,0 164,64 164,150 0,115 -87,151 -149,151l-100 0 -22 0 0 0zm6306 2l0 -301 144 0c79,0 134,64 134,150 0,114 -71,150 -122,150l-81 0 -75 1 0 0zm-4218 65l0 288 -121 -288 121 0zm310 0c-3,47 -3,97 -3,149 0,290 -9,508 367,508 212,0 337,-84 337,-347l-242 0c-3,78 -5,200 -95,200 -104,0 -119,-62 -119,-361 0,-58 1,-107 3,-149l-248 0 0 0zm-2339 114l38 0c144,0 190,63 190,168 0,164 -137,166 -198,166l-89 0 0 -332 59 -2 0 0zm6322 1l61 0c117,0 154,64 154,168 0,165 -111,167 -160,167l-130 0 0 -333 75 -2 0 0z"/>
   </g>
   <path class="fil2" d="M10951 4038l362 248 354 -236 0 -487 -716 475 0 0zm-2093 2577l-361 -246 -361 247 0 476 722 -477 0 0zm1370 -2103l353 238 -1679 1136 1037 700 488 -330 -379 -251 874 -585 731 485 -1766 1177 -1743 -1169 2084 -1401 0 0zm-662 1612l-353 -238 1679 -1136 -1038 -701 -487 331 379 250 -874 586 -731 -485 1760 -1177 1747 1174 -2082 1396 0 0z"/>
  </g>
 </g>
</svg>
