<?xml version="1.0" encoding="UTF-8"?>
<!DOCTYPE svg PUBLIC "-//W3C//DTD SVG 1.1//EN" "http://www.w3.org/Graphics/SVG/1.1/DTD/svg11.dtd">
<!-- Creator: CorelDRAW X8 -->
<svg xmlns="http://www.w3.org/2000/svg" xml:space="preserve" width="198px" height="124px" version="1.1" style="shape-rendering:geometricPrecision; text-rendering:geometricPrecision; image-rendering:optimizeQuality; fill-rule:evenodd; clip-rule:evenodd"
viewBox="0 0 19982 12520"
 xmlns:xlink="http://www.w3.org/1999/xlink">
 <defs>
  <style type="text/css">
   <![CDATA[
    .str0 {stroke:#E6E6E6;stroke-width:91.0262}
    .fil0 {fill:none}
    .fil1 {fill:#4D4D4D;fill-rule:nonzero}
    .fil3 {fill:#D92742;fill-rule:nonzero}
    .fil2 {fill:white;fill-rule:nonzero}
   ]]>
  </style>
 </defs>
 <g id="Camada_x0020_1">
  <metadata id="CorelCorpID_0Corel-Layer"/>
  <g id="_2323542128448">
   <rect class="fil0 str0" x="45" y="46" width="19891" height="12429"/>
   <path class="fil1" d="M15803 6979c-6,-14 -7,-23 -10,-22 -4,1 -11,5 -17,7 -34,19 -96,44 -181,44 -163,-1 -308,-126 -308,-329 0,-220 121,-340 285,-340 91,0 155,23 215,64 28,-101 76,-197 135,-276 -23,-17 -63,-43 -116,-68l0 0c-80,-36 -171,-56 -272,-56 -363,0 -639,245 -639,669 0,422 276,666 639,667 175,0 309,-57 309,-57 29,-11 77,-33 97,-43 -84,-113 -122,-220 -137,-260zm-1501 -976c-219,0 -467,120 -467,414 0,461 539,309 539,525 0,88 -76,102 -154,102 -137,0 -268,-44 -356,-88l0 304c100,41 217,79 378,79 248,0 512,-86 512,-427 0,-485 -565,-328 -565,-527 0,-71 93,-90 175,-88 87,2 223,39 303,95l0 -313c-116,-50 -242,-76 -365,-76zm-1400 546c8,-146 74,-266 210,-266 152,0 211,120 211,266l-421 0 0 0zm763 170c0,-380 -148,-716 -554,-716 -342,0 -589,245 -589,667 0,421 277,669 639,669 141,0 280,-25 403,-81l0 -311c-114,71 -232,97 -335,97 -186,0 -302,-68 -323,-245l759 0 0 -80zm-4052 -716c-164,0 -259,103 -325,264l-4 0 0 -235 -346 0 0 1277 380 0 0 -539c0,-250 98,-400 275,-413 36,-2 97,8 130,21l0 -356c-33,-11 -76,-19 -110,-19zm932 901c-50,87 -133,132 -237,132 -88,0 -156,-51 -156,-139 0,-123 101,-169 230,-169 57,0 114,5 163,7l0 169zm372 405c-16,-101 -21,-201 -21,-301l0 -476c0,-389 -242,-529 -523,-529 -159,0 -298,26 -432,88l0 298 1 4c105,-69 227,-96 350,-96 136,0 248,47 250,221 -48,-10 -115,-18 -177,-18 -202,0 -567,47 -567,437 0,277 194,402 411,402 144,0 267,-69 337,-199l0 169 371 0 0 0zm6345 -628l0 -18c-4,-418 -279,-660 -639,-660 -362,0 -639,245 -639,669 0,422 277,667 639,667 360,0 635,-242 639,-658zm-392 -9c0,-191 -72,-360 -247,-360 -174,0 -246,169 -246,360 0,189 72,358 246,358 175,0 247,-169 247,-358zm-5155 328c127,0 232,-139 232,-326 0,-193 -93,-333 -232,-333 -147,0 -230,147 -230,316 0,204 87,343 230,343zm611 309l-350 0 0 -192 -4 0c-74,142 -216,222 -377,222 -327,0 -502,-314 -502,-691 0,-314 167,-645 470,-645 152,0 280,46 378,194l4 0 0 -603 381 0 0 1715zm-4437 -1034l144 0c129,0 261,-37 261,-181 0,-157 -126,-172 -257,-172l-148 0 0 353zm0 711l150 0c144,0 293,-25 293,-199 0,-186 -153,-203 -288,-203l-155 0 0 402zm-392 -1387l711 0c274,0 479,139 479,433 0,216 -95,336 -260,400l0 5c196,46 297,169 297,377 0,409 -309,495 -573,495l-654 0 0 -1710z"/>
   <path class="fil2" d="M16870 6672c0,-191 -72,-360 -247,-360 -174,0 -246,169 -246,360 0,189 72,358 246,358 175,0 247,-169 247,-358z"/>
   <path class="fil3" d="M6570 8185l-3203 0c0,0 -647,0 -647,-647l0 -3203 3203 0c0,0 647,0 647,647l0 3203z"/>
   <polygon class="fil2" points="4471,7644 4282,7644 4282,6673 4471,6673 "/>
   <polygon class="fil2" points="4954,7644 4644,7644 4644,6311 4954,6311 "/>
   <path class="fil2" d="M4112 5382c0,0 313,-305 840,-205 0,0 232,36 410,194 0,0 26,25 47,5 0,0 26,-21 -3,-51 0,0 -153,-212 -455,-306 0,0 -415,-148 -841,53 0,0 -262,108 -408,404 0,0 -207,67 -362,154 0,0 -46,19 -29,54 0,0 15,26 55,7 0,0 144,-50 284,-81 0,0 -112,290 5,651 52,160 146,323 292,454 0,0 23,25 49,8 0,0 22,-16 7,-42 0,0 -116,-175 -161,-422 -38,-202 -20,-481 120,-702 0,0 534,-74 989,97 0,0 773,252 578,720 0,0 -56,162 -270,310 0,0 -35,20 -16,50 0,0 16,23 53,8 0,0 326,-106 467,-368 0,0 286,-438 -388,-795 0,0 -186,-99 -424,-152 0,0 -429,-106 -839,-45z"/>
  </g>
 </g>
</svg>
