<?xml version="1.0" encoding="UTF-8"?>
<!DOCTYPE svg PUBLIC "-//W3C//DTD SVG 1.1//EN" "http://www.w3.org/Graphics/SVG/1.1/DTD/svg11.dtd">
<!-- Creator: CorelDRAW X8 -->
<svg xmlns="http://www.w3.org/2000/svg" xml:space="preserve" width="198px" height="124px" version="1.1" style="shape-rendering:geometricPrecision; text-rendering:geometricPrecision; image-rendering:optimizeQuality; fill-rule:evenodd; clip-rule:evenodd"
viewBox="0 0 19800 12406"
 xmlns:xlink="http://www.w3.org/1999/xlink">
 <defs>
  <style type="text/css">
   <![CDATA[
    .str0 {stroke:#E6E6E6;stroke-width:90.198}
    .fil0 {fill:none}
    .fil1 {fill:#003091}
    .fil2 {fill:yellow}
   ]]>
  </style>
 </defs>
 <g id="Camada_x0020_1">
  <metadata id="CorelCorpID_0Corel-Layer"/>
  <g id="_2323542129312">
   <rect class="fil0 str0" x="45" y="45" width="19710" height="12316"/>
   <path class="fil1" d="M7284 2282l5232 0c364,0 668,130 919,381 261,252 391,564 391,929l0 5231c0,356 -130,668 -391,920 -251,251 -555,382 -919,382l-5232 0c-364,0 -676,-131 -928,-382 -252,-252 -382,-564 -382,-920l0 -5231c0,-365 130,-677 382,-929 252,-251 564,-381 928,-381z"/>
   <path class="fil2" d="M11969 6732l425 0 521 -529 -573 0 -373 529zm-156 131l-607 0 0 1136c0,304 78,529 225,677 130,130 304,191 521,191 303,0 529,-122 668,-356l9 0 0 312 537 0 0 -1960 -607 0 0 1145c0,52 -9,95 -17,121 -70,165 -191,252 -373,252 -235,0 -356,-165 -356,-486l0 -1032zm-1562 650c-399,0 -702,61 -911,191 -217,130 -329,321 -329,573 0,156 61,295 173,407 130,122 295,183 495,183 269,0 468,-87 607,-252l17 0 0 208 556 0 0 -1154c0,-260 -70,-459 -200,-607 -156,-165 -390,-252 -703,-252 -321,0 -589,61 -798,191l113 382c174,-104 364,-156 581,-156 269,0 399,87 399,269l0 17zm-1483 -650l-373 0 0 -660 -590 0 0 660 -278 0 0 451 278 0 0 789c0,269 52,469 165,581 112,122 277,183 477,183 130,0 234,-18 330,-52l-9 -460c-17,17 -52,26 -113,26 -95,0 -165,-35 -208,-104 -35,-52 -52,-139 -52,-269l0 -694 373 0 0 -451zm807 1362c0,-235 234,-339 694,-330l0 208 -9 113c-26,78 -78,139 -147,182 -70,61 -157,87 -252,87 -191,0 -286,-87 -286,-260zm-2950 -2022l0 2620 616 0 0 -2620 -616 0z"/>
  </g>
 </g>
</svg>
