<?xml version="1.0" encoding="UTF-8"?>
<!DOCTYPE svg PUBLIC "-//W3C//DTD SVG 1.1//EN" "http://www.w3.org/Graphics/SVG/1.1/DTD/svg11.dtd">
<!-- Creator: CorelDRAW X8 -->
<svg xmlns="http://www.w3.org/2000/svg" xml:space="preserve" width="198px" height="124px" version="1.1" style="shape-rendering:geometricPrecision; text-rendering:geometricPrecision; image-rendering:optimizeQuality; fill-rule:evenodd; clip-rule:evenodd"
viewBox="0 0 6620 4148"
 xmlns:xlink="http://www.w3.org/1999/xlink">
 <defs>
  <style type="text/css">
   <![CDATA[
    .str0 {stroke:#E6E6E6;stroke-width:30.1575}
    .fil0 {fill:none}
    .fil1 {fill:#D92E3F;fill-rule:nonzero}
    .fil2 {fill:white;fill-rule:nonzero}
   ]]>
  </style>
 </defs>
 <g id="Camada_x0020_1">
  <metadata id="CorelCorpID_0Corel-Layer"/>
  <g id="_2323542130304">
   <rect class="fil0 str0" x="15" y="15" width="6590" height="4118"/>
   <polygon class="fil1" points="990,1432 5630,1432 5630,2716 990,2716 "/>
   <path class="fil2" d="M1712 1669c0,90 151,190 151,293 0,0 0,10 -4,21 141,29 241,100 241,182 0,111 -178,203 -400,203 -226,0 -401,-90 -401,-199 0,-82 109,-149 240,-184 0,45 149,189 152,248 1,6 2,12 0,19 32,-17 32,-70 32,-70 0,-127 -144,-183 -144,-307 0,-49 22,-84 42,-94l0 35c0,90 157,191 157,273l0 27c37,-14 37,-82 37,-82 0,-113 -146,-176 -146,-307 0,-48 22,-83 43,-93l0 35z"/>
   <path class="fil2" d="M2418 2333c-76,0 -131,-22 -131,-22l0 -134 19 0c9,71 63,124 123,124 61,0 104,-34 104,-88 0,-57 -57,-83 -94,-102l-55 -28c-52,-26 -94,-69 -94,-129 0,-74 55,-138 159,-138 71,0 130,24 130,24l0 120 -19 0c-11,-64 -46,-114 -117,-114 -54,0 -85,37 -85,74 0,49 34,71 73,91l54 28c50,25 112,68 112,140 0,93 -63,154 -179,154z"/>
   <path class="fil2" d="M2771 2186c-15,7 -41,19 -41,53 0,18 11,48 47,48 18,0 42,-10 60,-24l0 -105 -66 28zm-29 144l0 0c-47,0 -78,-32 -78,-80 0,-34 24,-60 78,-80l95 -35 0 -30c0,-44 -21,-72 -51,-72 -21,0 -42,11 -53,28 -4,6 -5,15 -5,23 0,12 8,26 8,26l-46 21c-6,-10 -13,-25 -13,-40 0,-2 1,-5 1,-7 3,-26 25,-43 54,-61 29,-18 54,-23 71,-23 88,0 104,71 104,95l0 147c0,23 2,38 21,38 5,0 9,0 17,-3l16 -5 0 21 -98 37c-14,-11 -21,-30 -24,-46 -23,20 -63,46 -97,46z"/>
   <path class="fil2" d="M2983 2323l0 -17 23 -5c14,-2 24,-13 24,-27l0 -190c0,-16 -8,-25 -22,-25 -5,0 -10,1 -16,3l-9 4 0 -22 101 -44 15 0 0 53c30,-35 67,-53 99,-53 71,0 106,52 106,113l0 161c0,14 10,25 24,27l24 5 0 17 -167 0 0 -17 23 -5c14,-2 26,-13 26,-27l0 -161c0,-21 -6,-69 -62,-69 -31,0 -57,20 -72,34l0 196c0,14 11,25 25,27l23 5 0 17 -165 0z"/>
   <path class="fil2" d="M3593 2044l-98 0 0 176c0,39 21,60 50,60 12,0 31,-3 48,-13l8 17 -63 40c0,0 -13,2 -19,2 -61,0 -94,-36 -94,-113l0 -169 -51 0 0 -18c0,0 77,-30 107,-103l14 0 0 90 111 0 -13 31z"/>
   <path class="fil2" d="M3740 2186c-15,7 -40,19 -40,53 0,18 10,48 46,48 18,0 42,-10 60,-24l0 -105 -66 28zm-29 144l0 0c-47,0 -78,-32 -78,-80 0,-34 25,-60 78,-80l95 -35 0 -30c0,-44 -20,-72 -51,-72 -21,0 -42,11 -53,28 -4,6 -5,15 -5,23 0,12 8,26 8,26l-46 21c-6,-10 -13,-25 -13,-40 0,-2 1,-5 1,-7 4,-26 25,-43 55,-61 28,-18 53,-23 70,-23 89,0 104,71 104,95l0 147c0,23 2,38 21,38 6,0 9,0 17,-3l17 -5 0 21 -98 37c-15,-11 -22,-30 -25,-46 -23,20 -63,46 -97,46z"/>
   <path class="fil2" d="M3952 2323l0 -17 23 -5c14,-2 24,-13 24,-27l0 -190c0,-16 -8,-25 -22,-25 -5,0 -10,1 -16,3l-9 4 0 -22 101 -44 15 0 0 53c30,-35 67,-53 99,-53 71,0 106,52 106,113l0 161c0,14 10,25 24,27l24 5 0 17 -167 0 0 -17 24 -5c14,-2 25,-13 25,-27l0 -161c0,-21 -6,-69 -62,-69 -31,0 -57,20 -72,34l0 196c0,14 11,25 25,27l23 5 0 17 -165 0z"/>
   <path class="fil2" d="M4530 2030c-50,0 -102,33 -102,128 0,80 39,128 101,128 37,0 60,-22 66,-33l0 -185c-9,-24 -35,-38 -65,-38zm-31 300l0 0c-66,0 -145,-50 -145,-158 0,-94 72,-172 169,-172 32,0 55,7 72,14l0 -163c0,-17 -9,-22 -21,-22 -6,0 -13,2 -19,4l-14 5 0 -21 109 -47 15 0 0 468c0,27 4,42 23,42 5,0 9,0 17,-3l16 -5 0 21 -98 37c-15,-11 -23,-31 -26,-47 -18,20 -51,47 -98,47z"/>
   <path class="fil2" d="M4967 2111l0 -2c0,-53 -29,-79 -64,-79 -40,0 -69,27 -77,81l141 0zm-143 29l0 0 0 3c-1,95 52,142 119,142 33,0 64,-13 88,-32l0 29c-28,26 -70,48 -123,48 -109,0 -157,-83 -157,-162 0,-92 69,-168 159,-168 73,0 131,53 131,130l0 10 -217 0z"/>
   <path class="fil2" d="M5082 2323l0 -17 23 -5c13,-2 24,-13 24,-27l0 -190c0,-16 -8,-25 -22,-25 -5,0 -10,1 -16,3l-9 4 0 -22 99 -44 15 0 0 69c25,-49 55,-70 89,-70 29,0 35,7 35,7l0 75 -13 0c-4,-19 -17,-29 -38,-29 -23,0 -51,6 -70,47l0 175c0,14 14,25 27,27l34 5 0 17 -178 0z"/>
  </g>
 </g>
</svg>
