<?xml version="1.0" encoding="UTF-8"?>
<!DOCTYPE svg PUBLIC "-//W3C//DTD SVG 1.1//EN" "http://www.w3.org/Graphics/SVG/1.1/DTD/svg11.dtd">
<!-- Creator: CorelDRAW X8 -->
<svg xmlns="http://www.w3.org/2000/svg" xml:space="preserve" width="149px" height="66px" version="1.1" style="shape-rendering:geometricPrecision; text-rendering:geometricPrecision; image-rendering:optimizeQuality; fill-rule:evenodd; clip-rule:evenodd"
viewBox="0 0 14900 6610"
 xmlns:xlink="http://www.w3.org/1999/xlink">
 <defs>
  <style type="text/css">
   <![CDATA[
    .fil1 {fill:#999999}
    .fil0 {fill:#666666;fill-rule:nonzero}
   ]]>
  </style>
 </defs>
 <g id="Camada_x0020_1">
  <metadata id="CorelCorpID_0Corel-Layer"/>
  <g id="_2323541017360">
   <path class="fil0" d="M7461 2856c0,-47 -19,-86 -56,-117 -37,-30 -101,-59 -190,-86 -98,-27 -173,-60 -224,-100 -51,-40 -76,-95 -76,-164 0,-70 28,-128 86,-173 57,-45 129,-67 218,-67 93,0 168,25 225,76 57,51 84,116 82,195l-1 3 -70 0c0,-60 -22,-110 -66,-150 -44,-40 -101,-60 -170,-60 -71,0 -127,17 -168,50 -40,34 -61,76 -61,125 0,46 19,85 56,115 36,30 101,58 194,84 96,28 170,63 221,104 51,41 76,96 76,164 0,71 -29,128 -89,172 -59,43 -134,65 -224,65 -91,0 -169,-23 -237,-69 -67,-46 -100,-113 -97,-201l1 -4 70 0c0,71 27,124 80,158 53,35 114,53 183,53 70,0 127,-17 171,-49 44,-32 66,-73 66,-124zm328 223l-75 0 0 -682 75 0 0 682zm0 -877l-75 0 0 -106 75 0 0 106zm273 195l7 113c22,-40 51,-71 87,-92 36,-22 79,-33 129,-33 52,0 96,12 131,37 34,25 60,63 75,115 20,-48 50,-85 88,-112 38,-27 84,-40 137,-40 73,0 129,24 169,72 39,49 59,123 59,224l0 398 -75 0 0 -399c0,-84 -15,-143 -45,-178 -30,-34 -71,-52 -124,-52 -57,0 -102,18 -133,53 -32,35 -52,80 -60,136 0,4 0,9 0,14 1,4 1,10 1,17l0 409 -77 0 0 -399c0,-82 -14,-141 -44,-176 -31,-36 -72,-54 -124,-54 -53,0 -95,14 -127,40 -31,27 -53,63 -65,108l0 481 -76 0 0 -682 67 0zm1525 571c-22,40 -52,71 -88,92 -37,21 -81,32 -131,32 -72,0 -128,-24 -169,-73 -40,-49 -61,-124 -61,-227l0 -395 76 0 0 397c0,83 14,142 42,178 29,37 69,55 121,55 57,0 102,-13 136,-38 33,-26 57,-61 71,-105l0 -487 76 0 0 682 -67 0 -6 -111zm356 111l-75 0 0 -983 75 0 0 983zm640 0c-5,-24 -8,-45 -10,-62 -3,-17 -4,-35 -4,-53 -23,37 -56,68 -99,92 -42,24 -91,36 -146,36 -67,0 -118,-18 -155,-53 -37,-36 -55,-84 -55,-145 0,-61 26,-110 80,-148 53,-38 122,-56 208,-56l167 0 0 -85c0,-49 -15,-87 -46,-114 -31,-28 -74,-42 -131,-42 -51,0 -93,13 -125,38 -32,25 -48,57 -48,95l-69 0 -2 -4c-2,-51 20,-96 66,-135 47,-39 107,-58 182,-58 75,0 135,19 180,57 45,38 68,93 68,165l0 334c0,25 1,48 4,71 3,22 8,44 14,67l-79 0zm-251 -54c58,0 109,-13 151,-41 42,-27 71,-63 86,-106l0 -130 -168 0c-61,0 -112,14 -152,43 -40,29 -60,65 -60,106 0,38 13,70 38,93 26,23 61,35 105,35zm824 -563l-53 -4c-48,0 -87,14 -117,40 -31,27 -52,64 -65,110l0 471 -76 0 0 -682 66 0 10 114 0 7c19,-42 46,-74 79,-98 33,-23 73,-35 118,-35 10,0 18,0 27,2 8,2 15,3 21,5l-10 70zm-4186 2038l0 -620 -113 0 0 -62 113 0 0 -86c0,-73 20,-129 60,-168 40,-40 95,-60 166,-60 29,0 57,3 86,9 29,7 59,16 88,28l-12 65c-26,-10 -51,-19 -75,-24 -24,-6 -51,-9 -82,-9 -51,0 -89,13 -116,41 -26,27 -39,66 -39,118l0 86 159 0 0 62 -159 0 0 620 -76 0zm441 0l-75 0 0 -682 75 0 0 682zm275 -682l7 119c22,-42 52,-74 89,-97 37,-23 81,-34 131,-34 74,0 131,22 169,67 39,46 58,116 58,212l0 415 -76 0 0 -415c0,-78 -14,-133 -43,-165 -29,-33 -71,-49 -125,-49 -53,0 -97,14 -130,40 -33,27 -57,62 -71,106l0 483 -76 0 0 -682 67 0zm1083 682c-5,-24 -8,-45 -11,-62 -2,-17 -3,-35 -3,-53 -24,37 -57,68 -99,92 -42,24 -91,36 -146,36 -67,0 -119,-18 -156,-53 -36,-36 -55,-84 -55,-145 0,-61 27,-110 80,-148 54,-38 123,-56 208,-56l168 0 0 -85c0,-49 -16,-87 -46,-114 -31,-28 -75,-42 -131,-42 -52,0 -93,13 -125,38 -32,25 -48,57 -48,95l-70 0 -1 -4c-2,-51 20,-96 66,-135 46,-39 107,-58 182,-58 74,0 135,19 180,57 45,38 68,93 68,165l0 335c0,24 1,47 4,70 3,22 7,45 13,67l-78 0zm-251 -54c58,0 108,-13 151,-41 42,-27 71,-63 86,-106l0 -130 -168 0c-62,0 -112,14 -152,43 -40,30 -60,65 -60,106 0,39 13,70 38,93 25,24 61,35 105,35zm579 -628l8 119c22,-42 51,-74 88,-97 37,-23 81,-34 132,-34 74,0 130,22 169,67 38,46 58,116 58,212l0 415 -76 0 0 -415c0,-78 -15,-133 -44,-165 -29,-33 -70,-49 -124,-49 -54,0 -97,14 -130,40 -33,27 -57,62 -72,106l0 483 -75 0 0 -682 66 0zm901 632c49,0 91,-15 128,-43 38,-29 56,-69 56,-119l68 0 1 3c2,63 -23,116 -75,159 -51,42 -110,63 -178,63 -91,0 -161,-32 -212,-96 -50,-64 -76,-145 -76,-245l0 -26c0,-99 26,-181 76,-244 50,-64 121,-96 212,-96 73,0 134,22 182,66 49,44 73,102 71,174l-1 3 -68 0c0,-54 -18,-98 -53,-130 -36,-33 -80,-49 -131,-49 -72,0 -125,26 -160,79 -35,52 -52,118 -52,197l0 26c0,81 17,147 52,199 35,52 88,79 160,79zm499 50l-75 0 0 -682 75 0 0 682zm0 -877l-75 0 0 -106 75 0 0 106zm640 877c-5,-24 -8,-45 -10,-62 -3,-17 -4,-35 -4,-53 -23,37 -56,68 -99,92 -42,24 -91,36 -146,36 -67,0 -118,-18 -155,-53 -37,-36 -55,-84 -55,-145 0,-61 26,-110 80,-148 53,-38 122,-56 208,-56l167 0 0 -85c0,-49 -15,-87 -46,-114 -31,-28 -74,-42 -131,-42 -51,0 -93,13 -125,38 -32,25 -48,57 -48,95l-69 0 -2 -4c-2,-51 20,-96 66,-135 47,-39 107,-58 182,-58 75,0 135,19 180,57 45,38 68,93 68,165l0 335c0,24 1,47 4,70 3,22 8,45 14,67l-79 0zm-251 -54c58,0 109,-13 151,-41 42,-27 71,-63 86,-106l0 -130 -168 0c-61,0 -112,14 -152,43 -40,30 -60,65 -60,106 0,39 13,70 39,93 25,24 60,35 104,35zm577 -628l7 113c22,-40 51,-71 88,-92 36,-22 79,-33 129,-33 52,0 95,12 130,37 35,25 60,63 75,115 21,-48 50,-85 88,-112 38,-27 84,-40 138,-40 73,0 129,24 168,72 40,49 60,123 60,224l0 398 -76 0 0 -399c0,-84 -15,-143 -44,-178 -30,-34 -71,-52 -124,-52 -57,0 -102,18 -133,53 -32,35 -52,80 -60,136 0,4 0,9 0,14 0,4 0,10 0,17l0 409 -76 0 0 -399c0,-82 -15,-141 -45,-176 -30,-36 -71,-54 -124,-54 -53,0 -95,14 -126,40 -31,27 -53,63 -66,108l0 481 -75 0 0 -682 66 0zm1338 695c-88,0 -160,-31 -215,-93 -55,-63 -82,-143 -82,-241l0 -34c0,-99 28,-180 83,-243 56,-64 125,-96 207,-96 83,0 147,26 192,79 45,54 68,125 68,215l0 58 -475 0 0 21c0,78 20,143 59,194 40,51 94,77 163,77 42,0 80,-7 115,-21 35,-14 64,-32 87,-55l32 52c-24,25 -55,46 -94,62 -39,17 -86,25 -140,25zm-7 -643c-58,0 -105,21 -143,62 -37,42 -59,95 -65,159l2 3 390 0 0 -15c0,-61 -16,-111 -47,-150 -32,-39 -78,-59 -137,-59zm479 -52l7 119c22,-42 52,-74 89,-97 37,-23 81,-34 131,-34 74,0 131,22 169,67 39,46 58,116 58,212l0 415 -75 0 0 -415c0,-78 -15,-133 -44,-165 -29,-33 -71,-49 -125,-49 -53,0 -97,14 -130,40 -33,27 -56,62 -71,106l0 483 -76 0 0 -682 67 0zm769 -174l0 174 150 0 0 62 -150 0 0 444c0,45 8,76 24,95 17,19 38,28 65,28 9,0 18,-1 27,-2 8,-1 19,-2 30,-5l12 56c-11,5 -23,9 -38,13 -15,3 -30,4 -44,4 -48,0 -85,-15 -112,-45 -27,-30 -40,-78 -40,-144l0 -444 -118 0 0 -62 118 0 0 -174 76 0zm255 505c0,-100 28,-183 83,-247 55,-64 128,-96 218,-96 91,0 165,32 220,96 54,64 82,147 82,247l0 21c0,101 -27,183 -82,247 -55,64 -128,96 -218,96 -92,0 -165,-32 -220,-96 -55,-64 -83,-146 -83,-247l0 -21zm76 21c0,79 20,145 60,199 40,54 95,81 167,81 70,0 125,-27 165,-81 40,-54 60,-120 60,-199l0 -21c0,-78 -20,-144 -61,-198 -40,-54 -95,-81 -166,-81 -70,0 -125,27 -165,81 -40,54 -60,120 -60,198l0 21z"/>
   <path class="fil1" d="M4868 1794l1391 366 351 -1391 -267 -70 -228 867c-583,-940 -1623,-1566 -2810,-1566 -1825,0 -3305,1480 -3305,3305 0,1825 1480,3305 3305,3305 1218,0 2281,-659 2854,-1639l-239 -130c-527,896 -1501,1498 -2615,1498 -1676,0 -3034,-1359 -3034,-3034 0,-1676 1358,-3034 3034,-3034 1124,0 2105,611 2629,1520l-996 -264 -70 267zm-1417 2977l0 -252c238,-14 420,-84 561,-211 140,-126 210,-295 210,-491 0,-210 -56,-365 -182,-464 -127,-112 -309,-197 -576,-252l-13 0 0 -646c182,28 337,84 491,197l225 -309c-225,-155 -464,-239 -716,-252l0 -169 -211 0 0 169c-210,13 -394,83 -534,210 -140,127 -210,296 -210,491 0,196 56,351 182,449 111,99 309,183 561,239l0 660c-197,-28 -394,-127 -590,-296l-252 296c252,225 534,351 843,379l0 252 211 0zm13 -1222c140,42 225,84 281,127 41,56 70,112 70,197 0,85 -29,140 -99,197 -70,56 -155,83 -252,98l0 -619zm-491 -603c-42,-42 -70,-112 -70,-182 0,-84 28,-140 84,-197 70,-57 140,-84 252,-98l0 604c-141,-43 -224,-85 -266,-127l0 0z"/>
  </g>
 </g>
</svg>
