<?xml version="1.0" encoding="UTF-8"?>
<!DOCTYPE svg PUBLIC "-//W3C//DTD SVG 1.1//EN" "http://www.w3.org/Graphics/SVG/1.1/DTD/svg11.dtd">
<!-- Creator: CorelDRAW X8 -->
<svg xmlns="http://www.w3.org/2000/svg" xml:space="preserve" width="170px" height="66px" version="1.1" style="shape-rendering:geometricPrecision; text-rendering:geometricPrecision; image-rendering:optimizeQuality; fill-rule:evenodd; clip-rule:evenodd"
viewBox="0 0 17000 6627"
 xmlns:xlink="http://www.w3.org/1999/xlink">
 <defs>
  <style type="text/css">
   <![CDATA[
    .fil1 {fill:#999999}
    .fil0 {fill:#666666;fill-rule:nonzero}
   ]]>
  </style>
 </defs>
 <g id="Camada_x0020_1">
  <metadata id="CorelCorpID_0Corel-Layer"/>
  <g id="_2323547580496">
   <path class="fil0" d="M7450 2642l-412 0 0 381 476 0 0 64 -552 0 0 -920 549 0 0 65 -473 0 0 345 412 0 0 65zm274 -239l7 119c22,-42 52,-74 89,-97 37,-23 81,-34 132,-34 74,0 131,22 169,68 39,45 58,116 58,212l0 416 -76 0 0 -416c0,-78 -14,-133 -43,-166 -30,-32 -71,-48 -125,-48 -54,0 -98,13 -131,39 -33,27 -56,62 -71,107l0 484 -76 0 0 -684 67 0zm847 513l23 80 3 0 24 -80 186 -513 78 0 -259 684 -61 0 -260 -684 78 0 188 513zm523 171l-75 0 0 -684 75 0 0 684zm0 -879l-75 0 0 -106 75 0 0 106zm642 879c-5,-24 -8,-45 -11,-62 -2,-17 -3,-35 -3,-53 -24,37 -57,68 -99,92 -43,24 -91,36 -147,36 -67,0 -119,-18 -155,-53 -37,-36 -56,-84 -56,-145 0,-61 27,-111 80,-149 54,-38 124,-57 209,-57l168 0 0 -84c0,-49 -16,-87 -46,-115 -32,-28 -75,-42 -131,-42 -52,0 -94,13 -126,38 -32,25 -48,57 -48,95l-70 0 -1 -3c-2,-52 20,-97 66,-136 47,-39 107,-58 182,-58 75,0 136,19 181,57 45,39 68,94 68,165l0 336c0,24 1,47 4,70 3,23 8,45 14,68l-79 0zm-251 -54c58,0 108,-14 150,-41 43,-28 72,-63 87,-107l0 -130 -169 0c-61,0 -112,14 -152,44 -40,29 -60,64 -60,105 0,39 13,70 38,94 26,23 61,35 106,35zm825 -564l-53 -4c-48,0 -87,13 -117,40 -31,27 -53,63 -66,110l0 472 -75 0 0 -684 66 0 9 114 0 8c20,-42 47,-75 80,-99 33,-23 73,-35 119,-35 9,0 18,1 26,2 9,2 16,3 21,5l-10 71zm704 631c-88,0 -160,-31 -215,-94 -55,-62 -83,-143 -83,-241l0 -34c0,-99 28,-180 84,-244 55,-64 125,-96 207,-96 83,0 147,26 192,80 46,53 68,125 68,215l0 58 -475 0 0 21c0,78 19,143 59,194 39,51 94,77 163,77 42,0 80,-7 115,-20 35,-14 64,-32 87,-56l32 52c-24,25 -55,47 -94,63 -39,17 -86,25 -140,25zm-7 -645c-58,0 -106,21 -143,63 -38,42 -60,94 -66,158l2 4 391 0 0 -16c0,-60 -15,-110 -47,-150 -32,-39 -78,-59 -137,-59zm822 457c0,-32 -13,-60 -39,-84 -26,-24 -74,-43 -142,-58 -81,-17 -141,-40 -181,-70 -39,-29 -59,-70 -59,-122 0,-52 22,-97 66,-133 44,-36 102,-54 175,-54 76,0 137,19 182,58 46,38 68,86 65,142l-1 4 -70 0c0,-38 -16,-70 -48,-98 -33,-28 -75,-42 -128,-42 -55,0 -96,12 -124,36 -28,24 -42,52 -42,84 0,31 12,57 36,78 24,20 71,38 142,53 80,18 141,43 182,74 41,32 62,75 62,128 0,57 -23,103 -70,139 -46,35 -107,53 -182,53 -83,0 -149,-20 -196,-59 -47,-40 -70,-87 -67,-142l1 -4 69 0c4,50 24,85 61,108 37,22 81,33 132,33 54,0 97,-12 129,-36 32,-25 47,-54 47,-88zm368 -683l0 174 150 0 0 62 -150 0 0 446c0,44 8,76 24,95 17,18 38,28 65,28 9,0 18,-1 27,-2 8,-1 19,-3 30,-5l12 56c-10,5 -23,9 -38,12 -15,3 -29,5 -44,5 -48,0 -86,-15 -112,-45 -27,-31 -41,-79 -41,-144l0 -446 -118 0 0 -62 118 0 0 -174 77 0zm558 871c-89,0 -161,-31 -216,-94 -55,-62 -83,-143 -83,-241l0 -34c0,-99 28,-180 84,-244 56,-64 125,-96 208,-96 83,0 147,26 192,80 45,53 68,125 68,215l0 58 -476 0 0 21c0,78 20,143 59,194 40,51 94,77 164,77 41,0 80,-7 114,-20 35,-14 64,-32 87,-56l33 52c-24,25 -56,47 -95,63 -39,17 -85,25 -139,25zm-7 -645c-58,0 -106,21 -144,63 -37,42 -59,94 -65,158l2 4 391 0 0 -16c0,-60 -16,-110 -48,-150 -31,-39 -77,-59 -136,-59zm812 632l-75 0 0 -684 75 0 0 684zm0 -879l-75 0 0 -106 75 0 0 106zm273 195l7 113c22,-40 51,-70 88,-92 36,-22 79,-33 129,-33 53,0 96,12 131,37 35,25 60,64 75,115 21,-47 50,-85 88,-112 38,-27 84,-40 138,-40 73,0 129,24 169,72 40,49 60,124 60,225l0 399 -76 0 0 -400c0,-84 -15,-144 -45,-178 -30,-35 -71,-52 -124,-52 -57,0 -102,17 -133,52 -32,35 -52,81 -60,136 0,5 0,10 0,14 0,5 0,11 0,18l0 410 -76 0 0 -400c0,-82 -15,-142 -45,-177 -31,-36 -72,-53 -124,-53 -53,0 -96,13 -127,40 -32,26 -53,63 -66,108l0 482 -76 0 0 -684 67 0zm1040 332c0,-101 27,-183 82,-248 55,-64 128,-96 219,-96 92,0 165,32 220,96 55,65 83,147 83,248l0 21c0,101 -28,184 -83,248 -55,64 -127,96 -218,96 -92,0 -166,-32 -221,-96 -55,-64 -82,-147 -82,-248l0 -21zm75 21c0,79 20,146 60,200 40,53 96,80 168,80 70,0 125,-27 165,-80 40,-54 61,-121 61,-200l0 -21c0,-78 -21,-144 -61,-198 -40,-55 -96,-82 -167,-82 -70,0 -126,27 -166,82 -40,54 -60,120 -60,198l0 21zm321 -642l93 0 2 4 -157 164 -68 0 130 -168zm551 802l22 80 4 0 24 -80 185 -513 79 0 -260 684 -61 0 -260 -684 79 0 188 513zm690 184c-89,0 -161,-31 -216,-94 -55,-62 -83,-143 -83,-241l0 -34c0,-99 28,-180 84,-244 56,-64 125,-96 208,-96 83,0 147,26 192,80 45,53 68,125 68,215l0 58 -476 0 0 21c0,78 20,143 59,194 40,51 94,77 164,77 41,0 79,-7 114,-20 35,-14 64,-32 87,-56l33 52c-24,25 -56,47 -95,63 -39,17 -85,25 -139,25zm-7 -645c-59,0 -106,21 -144,63 -37,42 -59,94 -66,158l2 4 392 0 0 -16c0,-60 -16,-110 -48,-150 -31,-39 -77,-59 -136,-59zm497 632l-75 0 0 -985 75 0 0 985zm-9506 1102c0,102 -23,184 -70,244 -46,61 -110,92 -191,92 -47,0 -89,-9 -125,-27 -36,-18 -66,-44 -88,-78l0 354 -76 0 0 -946 58 0 14 107c23,-38 52,-67 88,-88 37,-21 79,-32 128,-32 82,0 146,33 192,99 47,65 70,153 70,261l0 14zm-76 -14c0,-86 -17,-157 -52,-212 -34,-55 -85,-82 -151,-82 -50,0 -91,12 -123,36 -32,24 -56,55 -72,94l0 331c18,37 42,66 75,87 32,21 73,32 121,32 66,0 116,-25 151,-75 34,-49 51,-115 51,-197l0 -14zm678 336c-4,-24 -8,-44 -10,-61 -2,-18 -4,-35 -4,-54 -23,38 -56,68 -99,92 -42,24 -91,37 -146,37 -67,0 -119,-18 -156,-54 -37,-35 -55,-83 -55,-145 0,-61 27,-110 80,-148 54,-38 123,-57 209,-57l167 0 0 -84c0,-49 -15,-88 -46,-115 -31,-28 -74,-42 -131,-42 -52,0 -93,13 -125,38 -32,25 -48,57 -48,95l-70 0 -1 -4c-3,-51 19,-96 66,-135 46,-39 107,-59 182,-59 75,0 135,20 181,58 45,38 68,93 68,165l0 336c0,24 1,47 4,70 3,23 7,45 13,67l-79 0zm-251 -53c58,0 109,-14 151,-42 42,-27 71,-63 86,-106l0 -131 -168 0c-62,0 -112,15 -152,44 -40,29 -60,65 -60,106 0,39 13,70 38,93 25,24 61,36 105,36zm826 -565l-54 -4c-47,0 -86,14 -117,40 -30,27 -52,64 -65,111l0 471 -76 0 0 -683 67 0 9 114 0 7c20,-42 46,-75 80,-98 33,-24 72,-36 118,-36 9,0 18,1 27,3 8,1 15,3 21,4l-10 71zm562 618c-4,-24 -8,-44 -10,-61 -3,-18 -4,-35 -4,-54 -23,38 -56,68 -99,92 -42,24 -91,37 -146,37 -67,0 -119,-18 -156,-54 -37,-35 -55,-83 -55,-145 0,-61 26,-110 80,-148 53,-38 123,-57 208,-57l168 0 0 -84c0,-49 -15,-88 -46,-115 -31,-28 -75,-42 -131,-42 -52,0 -94,13 -125,38 -32,25 -48,57 -48,95l-70 0 -2 -4c-2,-51 20,-96 66,-135 47,-39 108,-59 183,-59 75,0 135,20 180,58 46,38 68,93 68,165l0 336c0,24 2,47 5,70 2,23 7,45 13,67l-79 0zm-251 -53c58,0 108,-14 151,-42 42,-27 71,-63 86,-106l0 -131 -168 0c-62,0 -112,15 -153,44 -40,29 -59,65 -59,106 0,39 12,70 38,93 25,24 60,36 105,36zm1275 -58c-21,40 -51,71 -88,92 -36,22 -80,33 -131,33 -72,0 -128,-25 -169,-73 -41,-49 -61,-125 -61,-228l0 -396 76 0 0 397c0,84 14,143 42,180 29,36 69,54 121,54 57,0 102,-13 136,-38 34,-26 58,-60 72,-105l0 -488 76 0 0 683 -67 0 -7 -111zm338 -572l7 113c22,-40 51,-71 87,-93 37,-22 80,-33 130,-33 52,0 96,13 131,38 34,25 60,63 75,115 20,-48 50,-85 88,-112 38,-27 84,-41 138,-41 73,0 129,25 169,73 40,49 59,124 59,225l0 398 -75 0 0 -399c0,-84 -15,-144 -45,-179 -30,-34 -71,-52 -124,-52 -58,0 -102,18 -134,53 -31,35 -51,80 -60,136 0,5 0,9 0,14 1,5 1,10 1,18l0 409 -77 0 0 -399c0,-83 -15,-142 -45,-177 -30,-36 -71,-54 -124,-54 -53,0 -95,14 -126,40 -32,27 -54,63 -66,109l0 481 -76 0 0 -683 67 0zm1828 683c-4,-24 -8,-44 -10,-61 -2,-18 -4,-35 -4,-54 -23,38 -56,68 -99,92 -42,24 -91,37 -146,37 -67,0 -119,-18 -156,-54 -36,-35 -55,-83 -55,-145 0,-61 27,-110 80,-148 54,-38 123,-57 209,-57l167 0 0 -84c0,-49 -15,-88 -46,-115 -31,-28 -74,-42 -131,-42 -52,0 -93,13 -125,38 -32,25 -48,57 -48,95l-70 0 -1 -4c-3,-51 19,-96 66,-135 46,-39 107,-59 182,-59 75,0 135,20 181,58 45,38 68,93 68,165l0 336c0,24 1,47 4,70 3,23 7,45 13,67l-79 0zm-251 -53c58,0 109,-14 151,-42 42,-27 71,-63 86,-106l0 -131 -168 0c-62,0 -112,15 -152,44 -40,29 -60,65 -60,106 0,39 13,70 38,93 25,24 61,36 105,36zm579 -630l7 113c22,-40 51,-71 87,-93 36,-22 80,-33 130,-33 52,0 95,13 130,38 35,25 61,63 76,115 20,-48 50,-85 88,-112 38,-27 84,-41 138,-41 73,0 129,25 168,73 40,49 60,124 60,225l0 398 -75 0 0 -399c0,-84 -15,-144 -45,-179 -30,-34 -71,-52 -124,-52 -58,0 -102,18 -134,53 -32,35 -52,80 -60,136 0,5 0,9 0,14 0,5 1,10 1,18l0 409 -77 0 0 -399c0,-83 -15,-142 -45,-177 -30,-36 -71,-54 -124,-54 -53,0 -95,14 -127,40 -31,27 -53,63 -66,109l0 481 -75 0 0 -683 67 0zm1166 683l-75 0 0 -683 75 0 0 683zm0 -879l-75 0 0 -106 75 0 0 106zm182 543c0,-108 23,-196 69,-261 46,-66 110,-99 193,-99 48,0 90,11 126,32 36,21 65,50 88,88l11 -107 62 0 0 687c0,87 -25,154 -73,202 -48,47 -116,70 -203,70 -33,0 -68,-4 -106,-12 -37,-7 -69,-18 -97,-33l14 -63c28,13 57,23 88,30 31,7 64,11 99,11 68,0 118,-17 151,-52 33,-35 50,-85 50,-153l0 -96c-23,34 -52,60 -88,78 -36,19 -77,28 -123,28 -82,0 -146,-31 -192,-92 -46,-61 -69,-142 -69,-244l0 -14zm76 14c0,82 16,148 49,197 34,49 84,73 150,73 48,0 88,-11 121,-33 33,-21 58,-51 76,-89l0 -326c-17,-38 -42,-69 -73,-93 -32,-25 -73,-37 -123,-37 -66,0 -116,27 -150,82 -34,55 -50,126 -50,212l0 14zm628 -29c0,-101 28,-183 83,-248 55,-64 128,-97 219,-97 92,0 165,33 220,97 55,65 83,147 83,248l0 21c0,101 -28,183 -83,247 -55,65 -127,97 -218,97 -92,0 -166,-32 -221,-97 -55,-64 -83,-146 -83,-247l0 -21zm76 21c0,79 20,145 60,199 40,54 96,81 168,81 70,0 125,-27 165,-81 40,-54 61,-120 61,-199l0 -21c0,-78 -21,-144 -61,-199 -40,-54 -96,-81 -167,-81 -70,0 -126,27 -166,81 -40,55 -60,121 -60,199l0 21z"/>
   <g>
    <path class="fil1" d="M4881 1799l1394 366 352 -1394 -268 -70 -229 869c-584,-942 -1627,-1570 -2817,-1570 -1829,0 -3313,1483 -3313,3313 0,1830 1484,3314 3313,3314 1222,0 2287,-660 2862,-1644l-239 -129c-529,898 -1506,1501 -2623,1501 -1679,0 -3041,-1362 -3041,-3042 0,-1679 1362,-3041 3041,-3041 1127,0 2111,612 2636,1524l-998 -265 -70 268z"/>
    <path class="fil1" d="M4798 2916l-875 -875c-105,-105 -275,-105 -380,0l-1537 1537c-104,104 -104,275 0,380l875 875c105,105 275,105 380,0l1537 -1537c105,-105 105,-276 0,-380zm-2411 1708l-372 0c-48,0 -87,39 -87,87 0,48 39,87 87,87l372 0c48,0 87,-39 87,-87 0,-48 -39,-87 -87,-87zm-372 -1606l372 0c48,0 87,-39 87,-87 0,-49 -39,-88 -87,-88l-372 0c-48,0 -87,39 -87,88 0,48 39,87 87,87zm0 -333l576 0c48,0 87,-39 87,-87 0,-48 -39,-87 -87,-87l-576 0c-48,0 -87,39 -87,87 0,48 39,87 87,87zm0 -343l918 0c48,0 87,-39 87,-87 0,-48 -39,-87 -87,-87l-918 0c-48,0 -87,39 -87,87 0,48 39,87 87,87zm1027 2385c-12,-5 -24,-11 -34,-21l-875 -875c0,0 0,0 0,-1l909 0 0 897 0 0zm-856 -1076l1431 -1430 0 1391c0,21 -19,39 -40,39l-1391 0zm1035 968l0 -789 356 0c59,0 114,-22 155,-64 41,-41 64,-96 64,-154l0 -356 788 0 -1363 1363zm575 -1542l0 -910c0,0 0,0 1,1l874 874c10,10 17,22 21,35l-896 0z"/>
   </g>
  </g>
 </g>
</svg>
