<?xml version="1.0" encoding="UTF-8"?>
<!DOCTYPE svg PUBLIC "-//W3C//DTD SVG 1.1//EN" "http://www.w3.org/Graphics/SVG/1.1/DTD/svg11.dtd">
<!-- Creator: CorelDRAW X8 -->
<svg xmlns="http://www.w3.org/2000/svg" xml:space="preserve" width="105px" height="33px" version="1.1" style="shape-rendering:geometricPrecision; text-rendering:geometricPrecision; image-rendering:optimizeQuality; fill-rule:evenodd; clip-rule:evenodd"
viewBox="0 0 1299 408"
 xmlns:xlink="http://www.w3.org/1999/xlink">
 <defs>
  <style type="text/css">
   <![CDATA[
    .fil0 {fill:#666666}
    .fil1 {fill:#666666;fill-rule:nonzero}
   ]]>
  </style>
 </defs>
 <g id="Camada_x0020_1">
  <metadata id="CorelCorpID_0Corel-Layer"/>
  <g id="_2323541104832">
   <path class="fil0" d="M115 298c-63,0 -115,-51 -115,-114 0,-64 52,-115 115,-115 63,0 114,52 114,115 0,63 -51,114 -114,114zm26 -57c-1,2 -3,2 -6,2 -2,0 -4,0 -5,-2l-52 -52c-2,-2 -3,-4 -3,-6 0,-2 1,-4 3,-6l52 -52c3,-3 8,-3 11,0 3,4 3,9 0,12l-46 46 46 47c3,3 3,8 0,11l0 0zm-26 -156c-55,0 -99,45 -99,99 0,54 44,98 99,98 54,0 98,-44 98,-98 0,-54 -44,-99 -98,-99z"/>
   <path class="fil1" d="M392 126l3 10 1 0 3 -10 42 -116 12 0 -52 140 -11 0 -52 -140 12 0 42 116zm68 -29c0,-16 5,-28 13,-38 8,-10 19,-15 33,-15 14,0 25,5 34,15 8,10 13,22 13,38l0 3c0,15 -5,28 -13,38 -8,9 -20,14 -33,14 -14,0 -26,-5 -34,-14 -8,-10 -13,-23 -13,-38l0 -3zm12 3c0,12 3,22 9,30 6,8 15,13 26,13 10,0 19,-5 25,-13 6,-8 9,-18 9,-30l0 -3c0,-12 -3,-22 -9,-31 -6,-8 -15,-12 -26,-12 -10,0 -19,4 -25,12 -6,9 -9,19 -9,31l0 3zm117 50l-11 0 0 -150 11 0 0 150zm50 -131l0 27 23 0 0 9 -23 0 0 68c0,7 2,12 4,15 3,3 6,4 10,4 1,0 3,0 4,0 1,0 3,-1 5,-1l1 9c-1,0 -3,1 -5,2 -3,0 -5,0 -7,0 -7,0 -13,-2 -17,-7 -4,-4 -6,-12 -6,-22l0 -68 -18 0 0 -9 18 0 0 -27 11 0zm112 131c-1,-3 -1,-7 -2,-9 0,-3 0,-5 0,-8 -4,5 -9,10 -15,14 -7,3 -14,5 -23,5 -10,0 -18,-2 -23,-8 -6,-5 -9,-13 -9,-22 0,-9 4,-17 12,-23 8,-5 19,-8 32,-8l26 0 0 -13c0,-8 -3,-13 -7,-18 -5,-4 -12,-6 -20,-6 -8,0 -15,2 -19,6 -5,4 -8,8 -8,14l-10 0 -1 0c0,-8 3,-15 10,-21 8,-6 17,-9 28,-9 12,0 21,3 28,9 7,6 10,14 10,25l0 51c0,4 0,8 1,11 0,3 1,7 2,10l-12 0zm-38 -8c8,0 16,-2 23,-6 6,-4 10,-10 13,-16l0 -20 -26 0c-9,0 -17,2 -23,6 -6,5 -9,10 -9,16 0,6 2,11 6,15 3,3 9,5 16,5zm126 -86l-9 -1c-7,0 -13,2 -17,6 -5,5 -8,10 -10,17l0 72 -12 0 0 -104 10 0 2 17 0 2c3,-7 7,-12 12,-16 5,-3 11,-5 18,-5 1,0 3,0 4,0 1,1 2,1 3,1l-1 11zm-405 262c0,16 -3,28 -10,38 -8,9 -17,14 -30,14 -7,0 -13,-2 -19,-4 -5,-3 -10,-7 -13,-12l0 54 -12 0 0 -145 9 0 2 17c4,-6 8,-11 14,-14 5,-3 12,-5 19,-5 13,0 22,5 30,15 7,10 10,24 10,40l0 2zm-11 -2c0,-13 -3,-24 -8,-32 -6,-8 -13,-13 -23,-13 -8,0 -14,2 -19,6 -5,4 -9,8 -11,14l0 51c2,5 6,10 11,13 5,3 11,5 19,5 10,0 17,-4 23,-11 5,-8 8,-18 8,-31l0 -2zm103 52c-1,-4 -1,-7 -2,-10 0,-2 0,-5 0,-8 -4,6 -9,10 -15,14 -7,4 -14,6 -23,6 -10,0 -18,-3 -23,-8 -6,-6 -9,-13 -9,-23 0,-9 4,-16 12,-22 9,-6 19,-9 32,-9l26 0 0 -13c0,-7 -2,-13 -7,-17 -5,-5 -12,-7 -20,-7 -8,0 -14,2 -19,6 -5,4 -8,9 -8,15l-10 0 0 -1c-1,-8 3,-15 10,-21 7,-6 16,-9 27,-9 12,0 21,3 28,9 7,6 10,14 10,25l0 52c0,3 1,7 1,10 0,4 1,7 2,11l-12 0zm-38 -9c9,0 16,-2 23,-6 6,-4 11,-9 13,-16l0 -20 -26 0c-9,0 -17,2 -23,7 -6,4 -9,10 -9,16 0,6 2,10 6,14 4,4 9,5 16,5zm126 -86l-8 0c-8,0 -14,2 -18,6 -5,4 -8,10 -10,17l0 72 -12 0 0 -105 10 0 2 18 0 1c3,-7 7,-12 12,-15 5,-4 11,-6 18,-6 1,0 3,1 4,1 1,0 2,0 3,1l-1 10zm85 95c0,-4 -1,-7 -1,-10 0,-2 -1,-5 -1,-8 -3,6 -8,10 -15,14 -6,4 -14,6 -22,6 -10,0 -18,-3 -24,-8 -5,-6 -8,-13 -8,-23 0,-9 4,-16 12,-22 8,-6 19,-9 32,-9l25 0 0 -13c0,-7 -2,-13 -7,-17 -4,-5 -11,-7 -20,-7 -8,0 -14,2 -19,6 -5,4 -7,9 -7,15l-11 0 0 -1c0,-8 3,-15 10,-21 7,-6 16,-9 28,-9 11,0 20,3 27,9 7,6 11,14 11,25l0 52c0,3 0,7 0,10 1,4 2,7 3,11l-13 0zm-38 -9c9,0 17,-2 23,-6 7,-4 11,-9 13,-16l0 -20 -25 0c-10,0 -17,2 -24,7 -6,4 -9,10 -9,16 0,6 2,10 6,14 4,4 9,5 16,5zm129 9l0 -141 41 0c15,0 26,3 34,10 8,6 13,15 13,27 0,7 -2,13 -6,19 -4,5 -10,9 -16,11 9,1 16,5 21,11 6,7 9,15 9,24 0,12 -4,22 -12,29 -9,6 -19,10 -33,10l-51 0zm12 -68l0 58 39 0c10,0 18,-3 24,-8 6,-5 9,-12 9,-21 0,-9 -3,-15 -8,-21 -6,-5 -14,-8 -24,-8l-1 0 -39 0zm0 -10l34 0c9,0 17,-2 22,-7 5,-4 8,-11 8,-19 0,-9 -3,-16 -9,-20 -6,-5 -14,-7 -26,-7l-29 0 0 53zm175 61c-3,6 -7,11 -13,14 -6,3 -12,5 -20,5 -11,0 -20,-4 -26,-12 -6,-7 -9,-19 -9,-34l0 -61 11 0 0 61c0,13 3,22 7,27 4,6 10,9 18,9 9,0 16,-2 21,-6 5,-4 9,-9 11,-16l0 -75 12 0 0 105 -11 0 -1 -17zm104 -10c0,-5 -2,-9 -6,-13 -4,-3 -11,-6 -21,-9 -13,-2 -22,-6 -28,-10 -6,-5 -9,-11 -9,-19 0,-8 4,-15 10,-20 7,-6 16,-9 27,-9 12,0 21,3 28,9 7,6 10,13 10,22l-1 1 -10 0c0,-6 -3,-11 -8,-15 -4,-5 -11,-7 -19,-7 -8,0 -15,2 -19,6 -4,3 -6,8 -6,13 0,4 1,8 5,11 4,4 11,6 22,9 12,2 21,6 28,11 6,5 9,11 9,19 0,9 -4,16 -11,22 -7,5 -16,8 -27,8 -13,0 -23,-3 -30,-9 -8,-6 -11,-14 -11,-22l1 -1 10 0c1,8 4,13 9,17 6,3 13,5 21,5 8,0 14,-2 19,-6 5,-3 7,-8 7,-13zm77 19c7,0 14,-2 19,-7 6,-4 9,-10 9,-18l10 0 0 1c1,9 -3,17 -11,24 -8,6 -17,10 -27,10 -14,0 -25,-5 -33,-15 -7,-10 -11,-22 -11,-37l0 -5c0,-15 4,-27 11,-37 8,-10 19,-15 33,-15 11,0 20,4 28,11 7,6 11,15 10,26l0 1 -10 0c0,-9 -3,-15 -8,-20 -6,-5 -13,-8 -20,-8 -11,0 -19,4 -25,12 -5,8 -8,18 -8,30l0 5c0,12 3,22 8,30 6,8 14,12 25,12zm129 8c-1,-4 -1,-7 -2,-10 0,-2 0,-5 0,-8 -4,6 -9,10 -15,14 -7,4 -14,6 -23,6 -10,0 -18,-3 -23,-8 -6,-6 -9,-13 -9,-23 0,-9 4,-16 13,-22 8,-6 18,-9 31,-9l26 0 0 -13c0,-7 -2,-13 -7,-17 -5,-5 -11,-7 -20,-7 -8,0 -14,2 -19,6 -5,4 -8,9 -8,15l-10 0 0 -1c-1,-8 3,-15 10,-21 7,-6 16,-9 27,-9 12,0 21,3 28,9 7,6 10,14 10,25l0 52c0,3 1,7 1,10 0,4 1,7 2,11l-12 0zm-38 -9c9,0 16,-2 23,-6 6,-4 11,-9 13,-16l0 -20 -26 0c-9,0 -17,2 -23,7 -6,4 -9,10 -9,16 0,6 2,10 6,14 4,4 9,5 16,5z"/>
  </g>
 </g>
</svg>
