<?xml version="1.0" encoding="UTF-8"?>
<!DOCTYPE svg PUBLIC "-//W3C//DTD SVG 1.1//EN" "http://www.w3.org/Graphics/SVG/1.1/DTD/svg11.dtd">
<!-- Creator: CorelDRAW X8 -->
<svg xmlns="http://www.w3.org/2000/svg" xml:space="preserve" width="219px" height="33px" version="1.1" style="shape-rendering:geometricPrecision; text-rendering:geometricPrecision; image-rendering:optimizeQuality; fill-rule:evenodd; clip-rule:evenodd"
viewBox="0 0 22838 3479"
 xmlns:xlink="http://www.w3.org/1999/xlink">
 <defs>
  <style type="text/css">
   <![CDATA[
    .fil0 {fill:#4CAF50}
    .fil1 {fill:#666666;fill-rule:nonzero}
   ]]>
  </style>
 </defs>
 <g id="Camada_x0020_1">
  <metadata id="CorelCorpID_0Corel-Layer"/>
  <g id="_2323541054176">
   <path class="fil0" d="M1739 0c-960,0 -1739,779 -1739,1739 0,961 779,1740 1739,1740 961,0 1740,-779 1740,-1740 0,-960 -779,-1739 -1740,-1739zm363 2696c-90,35 -161,62 -215,80 -53,19 -115,28 -186,28 -108,0 -192,-26 -252,-79 -61,-53 -90,-120 -90,-201 0,-32 2,-64 6,-97 5,-33 12,-70 22,-112l112 -396c10,-38 18,-74 25,-108 7,-34 10,-65 10,-93 0,-50 -10,-85 -31,-105 -21,-20 -61,-30 -120,-30 -29,0 -58,4 -89,13 -30,10 -56,18 -78,26l30 -122c73,-30 143,-55 210,-76 67,-22 131,-33 190,-33 108,0 191,27 249,78 59,52 88,120 88,203 0,17 -2,48 -6,91 -4,43 -12,83 -22,119l-112 395c-9,32 -17,68 -25,108 -7,41 -10,72 -10,92 0,53 11,89 35,108 23,19 64,28 122,28 27,0 57,-5 92,-14 34,-9 59,-18 74,-25l-29 122zm-20 -1602c-52,48 -115,72 -188,72 -73,0 -136,-24 -189,-72 -52,-48 -78,-107 -78,-176 0,-68 27,-127 78,-176 53,-49 116,-73 189,-73 73,0 136,24 188,73 52,49 78,108 78,176 0,69 -26,128 -78,176z"/>
   <g>
    <path class="fil1" d="M4492 1457l0 -1184 361 0c144,0 264,49 358,145 95,97 142,220 142,371l0 152c0,151 -47,275 -142,371 -94,97 -214,145 -358,145l-361 0zm98 -1101l0 1018 263 0c117,0 213,-40 289,-122 76,-82 114,-185 114,-311l0 -154c0,-123 -38,-226 -115,-308 -76,-82 -172,-123 -288,-123l-263 0zm1333 1118c-114,-1 -206,-41 -277,-121 -71,-81 -107,-184 -107,-310l0 -45c0,-126 36,-231 108,-313 72,-83 161,-124 267,-124 107,0 189,34 247,103 59,68 88,161 88,277l0 75 -612 0 0 27c0,100 25,183 76,249 50,66 120,100 210,100 53,0 103,-9 148,-27 45,-18 82,-41 112,-71l41 67c-31,32 -71,59 -121,80 -50,22 -110,32 -180,33zm-9 -830c-75,0 -136,27 -185,80 -48,54 -76,122 -84,204l2 5 504 0 0 -20c0,-78 -20,-142 -61,-193 -41,-51 -100,-76 -176,-76zm1058 587c0,-41 -17,-76 -51,-107 -34,-31 -95,-56 -183,-75 -104,-22 -182,-52 -232,-90 -51,-37 -76,-90 -76,-157 0,-68 28,-125 85,-171 56,-47 131,-70 224,-70 98,0 177,25 235,75 59,49 87,110 84,183l-2 5 -90 0c0,-49 -21,-91 -62,-126 -42,-36 -96,-54 -165,-54 -70,0 -123,15 -159,46 -36,31 -53,67 -53,108 0,40 15,74 45,100 31,26 92,49 184,69 102,23 180,55 233,95 53,41 79,96 79,165 0,73 -29,132 -89,178 -59,46 -137,68 -235,69 -107,-1 -190,-26 -251,-77 -61,-51 -90,-111 -87,-182l2 -5 89 0c4,64 30,110 78,138 48,29 104,44 169,44 71,0 126,-16 167,-47 40,-32 61,-70 61,-114zm655 243c-114,-1 -206,-41 -277,-121 -71,-81 -107,-184 -107,-310l0 -45c0,-126 36,-231 108,-313 72,-83 161,-124 267,-124 107,0 189,34 247,103 59,68 88,161 88,277l0 75 -612 0 0 27c0,100 25,183 76,249 50,66 120,100 210,100 53,0 103,-9 148,-27 45,-18 82,-41 112,-71l41 67c-31,32 -71,59 -121,80 -50,22 -110,32 -180,33zm-9 -830c-75,0 -136,27 -185,80 -48,54 -76,122 -84,204l2 5 504 0 0 -20c0,-78 -20,-142 -61,-193 -41,-51 -100,-76 -176,-76zm646 -67l0 952c0,90 -22,160 -65,209 -44,49 -104,74 -181,74 -16,0 -31,-2 -45,-4 -15,-3 -30,-7 -46,-12l11 -82c9,3 20,5 36,8 15,3 28,4 40,4 48,0 85,-16 113,-50 27,-33 40,-82 40,-147l0 -952 97 0zm-5 -255l-97 0 0 -133 97 0 0 133zm229 682c0,-130 36,-236 106,-319 71,-82 166,-124 283,-124 117,0 211,42 282,124 71,83 107,189 107,319l0 27c0,130 -36,236 -106,319 -71,82 -165,123 -282,124 -118,-1 -213,-42 -284,-124 -70,-83 -106,-189 -106,-319l0 -27zm98 27c0,102 25,187 77,257 51,69 123,104 215,104 91,0 162,-35 213,-104 52,-70 78,-155 78,-257l0 -27c0,-100 -26,-185 -78,-255 -52,-70 -124,-105 -214,-105 -91,0 -163,35 -214,105 -52,70 -77,155 -77,255l0 27zm1370 -454l9 145c29,-51 66,-91 113,-119 47,-28 102,-42 167,-42 67,0 123,16 168,48 45,33 77,82 97,148 26,-61 64,-109 113,-144 49,-35 108,-52 178,-52 93,0 166,31 217,93 51,63 77,159 77,290l0 513 -98 0 0 -515c0,-108 -19,-185 -57,-229 -39,-45 -92,-68 -160,-68 -74,0 -131,23 -172,68 -40,46 -66,104 -77,175 0,7 0,12 0,19 0,5 1,13 1,22l0 528 -99 0 0 -515c0,-106 -19,-182 -58,-228 -38,-45 -92,-69 -159,-69 -69,0 -123,18 -163,52 -41,35 -69,81 -85,140l0 620 -98 0 0 -880 86 0zm1949 880c-6,-31 -11,-58 -14,-80 -2,-22 -4,-45 -4,-68 -30,47 -73,87 -128,118 -54,31 -117,46 -188,47 -86,-1 -153,-23 -200,-69 -48,-46 -71,-108 -71,-187 0,-78 34,-142 103,-191 68,-48 158,-73 268,-73l216 0 0 -109c0,-62 -20,-112 -60,-147 -40,-36 -96,-54 -168,-54 -67,0 -121,16 -161,49 -42,32 -62,73 -62,122l-90 0 -2 -4c-3,-66 25,-125 85,-175 60,-50 138,-75 235,-75 96,0 174,25 232,74 58,49 88,120 88,212l0 432c0,31 1,61 5,91 4,29 9,58 17,87l-101 0zm-323 -70c74,0 139,-17 194,-53 54,-35 91,-81 111,-137l0 -168 -217 0c-79,0 -144,19 -196,57 -51,37 -77,83 -77,136 0,50 16,90 49,120 33,30 78,45 136,45zm770 70l-97 0 0 -880 97 0 0 880zm0 -1131l-97 0 0 -137 97 0 0 137zm795 905c0,-41 -17,-76 -51,-107 -33,-31 -94,-56 -183,-75 -104,-22 -181,-52 -232,-90 -50,-37 -76,-90 -76,-157 0,-68 28,-125 85,-171 57,-47 132,-70 225,-70 98,0 176,25 235,75 58,49 86,110 83,183l-1 5 -90 0c0,-49 -21,-91 -63,-126 -41,-36 -96,-54 -164,-54 -70,0 -124,15 -159,46 -36,31 -54,67 -54,108 0,40 15,74 46,100 31,26 92,49 183,69 103,23 181,55 234,95 53,41 79,96 79,165 0,73 -30,132 -89,178 -59,46 -138,68 -235,69 -107,-1 -191,-26 -252,-77 -61,-51 -89,-111 -86,-182l1 -5 90 0c3,64 29,110 77,138 48,29 105,44 170,44 70,0 126,-16 166,-47 41,-32 61,-70 61,-114zm835 226l-97 0 0 -880 97 0 0 880zm0 -1131l-97 0 0 -137 97 0 0 137zm355 251l9 153c28,-54 67,-95 114,-125 48,-29 105,-44 170,-44 95,0 168,29 218,87 50,59 75,149 75,273l0 536 -98 0 0 -535c0,-101 -19,-172 -56,-214 -38,-42 -92,-63 -161,-63 -69,0 -125,18 -168,52 -42,34 -73,80 -92,137l0 623 -97 0 0 -880 86 0zm906 880l0 -800 -145 0 0 -80 145 0 0 -128c0,-88 23,-157 67,-205 45,-48 107,-72 186,-72 18,0 35,1 54,4 18,3 37,6 57,11l-13 81c-13,-4 -26,-6 -40,-8 -14,-2 -30,-3 -48,-3 -53,0 -94,17 -122,50 -29,34 -43,81 -43,142l0 128 199 0 0 80 -199 0 0 800 -98 0zm414 -453c0,-130 36,-236 107,-319 71,-82 165,-124 282,-124 117,0 212,42 283,124 70,83 106,189 106,319l0 27c0,130 -35,236 -106,319 -71,82 -165,123 -282,124 -118,-1 -212,-42 -283,-124 -71,-83 -107,-189 -107,-319l0 -27zm98 27c0,102 25,187 77,257 51,69 123,104 215,104 91,0 162,-35 214,-104 51,-70 77,-155 77,-257l0 -27c0,-100 -26,-185 -78,-255 -52,-70 -123,-105 -214,-105 -91,0 -163,35 -214,105 -52,70 -77,155 -77,255l0 27zm1284 -370l-69 -5c-61,0 -111,17 -150,52 -40,34 -68,81 -84,141l0 608 -98 0 0 -880 86 0 12 147 0 9c25,-54 59,-96 102,-127 43,-30 94,-45 153,-45 11,0 23,1 34,3 11,2 20,4 27,6l-13 91zm250 -84l9 145c28,-51 66,-91 112,-119 47,-28 103,-42 167,-42 68,0 124,16 169,48 45,33 77,82 96,148 27,-61 65,-109 114,-144 49,-35 108,-52 177,-52 94,0 166,31 217,93 52,63 77,159 77,290l0 513 -97 0 0 -515c0,-108 -19,-185 -58,-229 -38,-45 -91,-68 -159,-68 -74,0 -132,23 -172,68 -41,46 -67,104 -78,175 0,7 1,12 1,19 0,5 0,13 0,22l0 528 -98 0 0 -515c0,-106 -19,-182 -58,-228 -39,-45 -92,-69 -160,-69 -68,0 -123,18 -163,52 -40,35 -69,81 -85,140l0 620 -97 0 0 -880 86 0zm1949 880c-7,-31 -11,-58 -14,-80 -3,-22 -5,-45 -5,-68 -30,47 -72,87 -127,118 -55,31 -117,46 -188,47 -87,-1 -154,-23 -201,-69 -47,-46 -71,-108 -71,-187 0,-78 34,-142 103,-191 69,-48 159,-73 268,-73l216 0 0 -109c0,-62 -19,-112 -59,-147 -40,-36 -96,-54 -169,-54 -66,0 -120,16 -161,49 -41,32 -61,73 -61,122l-91 0 -1 -4c-3,-66 25,-125 85,-175 59,-50 138,-75 234,-75 96,0 174,25 233,74 58,49 87,120 87,212l0 432c0,31 2,61 5,91 4,29 10,58 18,87l-101 0zm-324 -70c75,0 140,-17 194,-53 55,-35 92,-81 111,-137l0 -168 -216 0c-80,0 -145,19 -196,57 -52,37 -77,83 -77,136 0,50 16,90 49,120 32,30 78,45 135,45zm983 5c63,0 118,-19 166,-56 48,-37 72,-88 72,-153l86 0 2 4c2,82 -30,150 -96,205 -66,54 -142,81 -230,82 -117,-1 -208,-42 -273,-124 -65,-82 -98,-188 -98,-316l0 -34c0,-128 32,-233 97,-315 65,-83 156,-124 273,-124 95,0 173,28 236,85 63,57 93,132 91,225l-2 5 -86 0c0,-71 -23,-127 -69,-169 -47,-42 -103,-63 -170,-63 -92,0 -160,34 -205,101 -45,68 -68,153 -68,255l0 34c0,104 23,189 68,256 45,68 114,102 206,102zm25 71l-10 52c43,5 77,18 103,40 27,21 40,54 40,99 0,49 -22,89 -64,118 -43,30 -104,44 -184,44l-6 -63c49,0 90,-8 124,-24 33,-17 49,-41 49,-73 0,-31 -11,-53 -33,-65 -23,-12 -62,-20 -119,-25l24 -103 76 0zm456 -459c0,-130 35,-236 106,-319 71,-82 165,-124 282,-124 117,0 212,42 283,124 71,83 106,189 106,319l0 27c0,130 -35,236 -106,319 -71,82 -164,123 -281,124 -119,-1 -213,-42 -284,-124 -71,-83 -106,-189 -106,-319l0 -27zm97 27c0,102 26,187 77,257 52,69 123,104 216,104 90,0 161,-35 213,-104 51,-70 77,-155 77,-257l0 -27c0,-100 -26,-185 -78,-255 -52,-70 -123,-105 -214,-105 -91,0 -162,35 -214,105 -51,70 -77,155 -77,255l0 27zm562 -793c0,48 -15,88 -45,119 -30,31 -67,47 -111,47 -40,0 -81,-15 -123,-45 -42,-30 -77,-45 -107,-45 -25,0 -46,10 -64,29 -17,19 -26,43 -26,72l-65 -14c0,-47 15,-86 44,-118 30,-32 66,-47 111,-47 36,0 76,15 120,44 44,30 81,45 110,45 24,0 46,-10 64,-29 18,-20 27,-44 27,-74l65 16zm655 1236c-113,-1 -206,-41 -277,-121 -71,-81 -106,-184 -106,-310l0 -45c0,-126 36,-231 107,-313 72,-83 161,-124 267,-124 107,0 190,34 248,103 58,68 87,161 87,277l0 75 -612 0 0 27c0,100 25,183 76,249 51,66 121,100 210,100 54,0 103,-9 148,-27 45,-18 82,-41 112,-71l42 67c-31,32 -72,59 -122,80 -50,22 -110,32 -180,33zm-9 -830c-75,0 -136,27 -184,80 -48,54 -77,122 -85,204l3 5 504 0 0 -20c0,-78 -21,-142 -62,-193 -41,-51 -99,-76 -176,-76zm1058 587c0,-41 -17,-76 -51,-107 -33,-31 -94,-56 -183,-75 -104,-22 -181,-52 -232,-90 -50,-37 -76,-90 -76,-157 0,-68 28,-125 85,-171 57,-47 132,-70 225,-70 98,0 176,25 235,75 58,49 86,110 83,183l-1 5 -90 0c0,-49 -21,-91 -63,-126 -41,-36 -96,-54 -164,-54 -70,0 -124,15 -159,46 -36,31 -54,67 -54,108 0,40 15,74 46,100 31,26 92,49 183,69 103,23 181,55 234,95 53,41 79,96 79,165 0,73 -30,132 -89,178 -59,46 -138,68 -235,69 -107,-1 -191,-26 -252,-77 -61,-51 -89,-111 -86,-182l1 -5 90 0c3,64 29,110 77,138 48,29 105,44 170,44 70,0 126,-16 166,-47 41,-32 61,-70 61,-114zm-17745 1834c0,-42 -17,-77 -51,-108 -34,-31 -95,-56 -183,-75 -104,-22 -182,-52 -232,-89 -51,-38 -76,-90 -76,-158 0,-68 28,-124 85,-171 56,-47 131,-70 224,-70 98,0 177,25 235,75 59,49 87,110 84,183l-2 5 -90 0c0,-48 -21,-90 -62,-126 -42,-36 -96,-54 -165,-54 -70,0 -123,16 -159,46 -36,32 -54,67 -54,109 0,40 16,73 46,99 31,26 92,49 183,70 103,22 181,54 234,95 53,40 79,95 79,164 0,73 -29,132 -89,178 -59,46 -137,69 -235,69 -107,0 -190,-26 -251,-77 -61,-50 -90,-111 -87,-182l2 -5 89 0c4,64 30,110 78,139 48,28 104,43 169,43 71,0 126,-16 167,-47 40,-32 61,-69 61,-113zm266 -228c0,-129 36,-235 107,-318 71,-83 165,-125 282,-125 117,0 212,42 283,125 70,83 106,189 106,318l0 27c0,130 -35,236 -106,319 -71,83 -165,124 -282,124 -118,0 -212,-41 -283,-124 -71,-83 -107,-189 -107,-319l0 -27zm98 27c0,102 25,187 77,257 51,69 123,104 215,104 91,0 162,-35 214,-104 51,-70 77,-155 77,-257l0 -27c0,-100 -26,-185 -78,-255 -52,-70 -123,-105 -214,-105 -91,0 -163,35 -214,105 -52,70 -77,155 -77,255l0 27zm1592 11c0,131 -30,236 -90,314 -59,79 -141,118 -246,118 -64,0 -119,-13 -166,-39 -47,-25 -85,-62 -114,-110l-17 132 -76 0 0 -1268 98 0 0 523c29,-48 66,-85 112,-111 45,-27 99,-40 161,-40 106,0 189,42 248,127 60,84 90,196 90,336l0 18zm-99 -18c0,-112 -21,-203 -65,-273 -43,-70 -107,-105 -192,-105 -68,0 -122,16 -163,49 -41,33 -72,75 -92,127l0 402c21,51 53,92 96,121 42,30 96,44 160,44 85,0 149,-31 192,-94 43,-63 64,-147 64,-253l0 -18zm718 -363l-69 -5c-62,0 -112,18 -151,52 -39,34 -67,82 -84,142l0 607 -98 0 0 -879 86 0 12 146 0 10c25,-55 59,-97 102,-127 43,-31 94,-46 153,-46 12,0 23,1 34,3 11,2 20,4 27,6l-12 91zm485 813c-114,0 -206,-41 -277,-121 -71,-80 -107,-184 -107,-310l0 -44c0,-127 36,-232 108,-314 72,-82 161,-124 267,-124 107,0 189,35 247,103 59,69 88,161 88,277l0 75 -612 0 0 27c0,100 25,183 76,250 50,66 121,99 210,99 53,0 103,-9 148,-27 45,-17 82,-41 112,-71l41 67c-30,32 -71,59 -121,81 -50,21 -110,32 -180,32zm-9 -830c-75,0 -136,27 -184,80 -49,54 -77,122 -85,205l2 4 504 0 0 -20c0,-78 -20,-142 -61,-193 -41,-50 -100,-76 -176,-76zm1270 830c-114,0 -206,-41 -277,-121 -71,-80 -107,-184 -107,-310l0 -44c0,-127 36,-232 108,-314 72,-82 161,-124 267,-124 107,0 189,35 248,103 58,69 87,161 87,277l0 75 -612 0 0 27c0,100 25,183 76,250 51,66 121,99 210,99 54,0 103,-9 148,-27 45,-17 82,-41 112,-71l42 67c-31,32 -72,59 -122,81 -50,21 -110,32 -180,32zm-9 -830c-75,0 -136,27 -184,80 -49,54 -77,122 -85,205l3 4 503 0 0 -20c0,-78 -20,-142 -61,-193 -41,-50 -100,-76 -176,-76zm1058 588c0,-42 -17,-77 -51,-108 -34,-31 -95,-56 -183,-75 -104,-22 -181,-52 -232,-89 -50,-38 -76,-90 -76,-158 0,-68 28,-124 85,-171 56,-47 132,-70 224,-70 99,0 177,25 235,75 59,49 87,110 84,183l-2 5 -90 0c0,-48 -20,-90 -62,-126 -41,-36 -96,-54 -165,-54 -70,0 -123,16 -159,46 -35,32 -53,67 -53,109 0,40 15,73 46,99 30,26 91,49 183,70 103,22 181,54 233,95 53,40 80,95 80,164 0,73 -30,132 -89,178 -60,46 -138,69 -236,69 -106,0 -190,-26 -251,-77 -61,-50 -90,-111 -87,-182l2 -5 89 0c4,64 30,110 78,139 48,28 105,43 169,43 71,0 126,-16 167,-47 41,-32 61,-69 61,-113zm473 -879l0 225 193 0 0 79 -193 0 0 573c0,58 10,98 31,122 21,24 49,37 84,37 12,0 23,-1 34,-2 11,-2 24,-4 39,-7l15 72c-13,6 -29,12 -48,16 -19,4 -38,6 -58,6 -61,0 -109,-20 -144,-59 -34,-39 -51,-101 -51,-185l0 -573 -152 0 0 -79 152 0 0 -225 98 0zm718 1121c-114,0 -207,-41 -278,-121 -70,-80 -106,-184 -106,-310l0 -44c0,-127 36,-232 108,-314 71,-82 161,-124 267,-124 106,0 189,35 247,103 58,69 87,161 87,277l0 75 -611 0 0 27c0,100 25,183 76,250 50,66 120,99 210,99 53,0 102,-9 147,-27 45,-17 83,-41 113,-71l41 67c-31,32 -71,59 -121,81 -51,21 -110,32 -180,32zm-9 -830c-75,0 -136,27 -185,80 -48,54 -76,122 -84,205l2 4 504 0 0 -20c0,-78 -20,-142 -61,-193 -41,-50 -100,-76 -176,-76zm1044 813l-96 0 0 -879 96 0 0 879zm0 -1131l-96 0 0 -137 96 0 0 137zm352 252l9 144c28,-51 66,-90 113,-118 47,-29 102,-43 167,-43 67,0 123,17 168,49 45,32 77,81 97,147 26,-61 64,-109 113,-144 49,-34 108,-52 178,-52 93,0 166,32 217,94 51,62 77,159 77,289l0 513 -98 0 0 -514c0,-109 -19,-185 -57,-230 -39,-45 -92,-67 -160,-67 -74,0 -131,22 -172,68 -41,45 -66,103 -77,175 0,6 0,12 0,18 0,6 1,13 1,23l0 527 -99 0 0 -514c0,-107 -19,-183 -58,-228 -39,-46 -92,-69 -160,-69 -68,0 -122,17 -162,51 -41,35 -69,81 -85,140l0 620 -98 0 0 -879 86 0z"/>
    <path class="fil1" d="M14282 2837c0,-129 35,-235 106,-318 71,-83 165,-125 282,-125 118,0 212,42 283,125 71,83 106,189 106,318l0 27c0,130 -35,236 -106,319 -70,83 -164,124 -281,124 -118,0 -213,-41 -284,-124 -71,-83 -106,-189 -106,-319l0 -27zm97 27c0,102 26,187 77,257 52,69 124,104 216,104 90,0 161,-35 213,-104 52,-70 78,-155 78,-257l0 -27c0,-100 -26,-185 -79,-255 -51,-70 -123,-105 -214,-105 -91,0 -162,35 -214,105 -51,70 -77,155 -77,255l0 27zm413 -826l120 0 2 5 -202 211 -87 0 167 -216zm708 1032l29 103 5 0 31 -103 239 -659 100 0 -334 879 -78 0 -334 -879 100 0 242 659zm888 237c-114,0 -206,-41 -277,-121 -71,-80 -107,-184 -107,-310l0 -44c0,-127 36,-232 108,-314 72,-82 161,-124 267,-124 107,0 189,35 248,103 58,69 87,161 87,277l0 75 -612 0 0 27c0,100 25,183 76,250 51,66 121,99 210,99 54,0 103,-9 148,-27 45,-17 82,-41 112,-71l42 67c-31,32 -72,59 -122,81 -50,21 -110,32 -180,32zm-9 -830c-75,0 -136,27 -184,80 -49,54 -77,122 -85,205l3 4 503 0 0 -20c0,-78 -20,-142 -61,-193 -41,-50 -100,-76 -176,-76zm640 813l-96 0 0 -1268 96 0 0 1268z"/>
   </g>
  </g>
 </g>
</svg>
