<?xml version="1.0" encoding="UTF-8"?>
<!DOCTYPE svg PUBLIC "-//W3C//DTD SVG 1.1//EN" "http://www.w3.org/Graphics/SVG/1.1/DTD/svg11.dtd">
<!-- Creator: CorelDRAW X8 -->
<svg xmlns="http://www.w3.org/2000/svg" xml:space="preserve" width="190px" height="60px" version="1.1" style="shape-rendering:geometricPrecision; text-rendering:geometricPrecision; image-rendering:optimizeQuality; fill-rule:evenodd; clip-rule:evenodd"
viewBox="0 0 131177 41177"
 xmlns:xlink="http://www.w3.org/1999/xlink">
 <defs>
  <style type="text/css">
   <![CDATA[
    .fil0 {fill:#3B5998}
    .fil1 {fill:white;fill-rule:nonzero}
   ]]>
  </style>
 </defs>
 <g id="Camada_x0020_1">
  <metadata id="CorelCorpID_0Corel-Layer"/>
  <g id="_2082137784688">
   <rect class="fil0" width="131177" height="41177" rx="1989" ry="1989"/>
   <path class="fil1" d="M28113 27768l0 -5323 5199 0 0 -2744 -5199 0 0 -2929 5632 0 0 -2744 -8727 0 0 13740 3095 0zm15411 0l0 -6416c0,-2785 -763,-3838 -4250,-3838 -1155,0 -2661,207 -3610,496l392 2228c949,-186 1836,-289 2723,-289 1588,0 1774,350 1774,1382l0 764 -2166 0c-2063,0 -2992,804 -2992,2826 0,1712 764,3053 2620,3053 682,0 1713,-206 2868,-846l207 640 2434 0zm-2971 -2455c-454,206 -887,350 -1506,350 -577,0 -805,-227 -805,-783 0,-558 248,-723 887,-723l1424 0 0 1156zm7799 -3755c0,-1031 433,-1506 1630,-1506 577,0 1443,103 2063,247l371 -2475c-1011,-227 -1733,-310 -2434,-310 -3260,0 -4601,1217 -4601,4086l0 2290c0,2867 1341,4084 4601,4084 701,0 1423,-82 2434,-309l-371 -2476c-722,165 -1300,247 -2063,247 -1197,0 -1630,-474 -1630,-1506l0 -2372zm13884 2228l0 -2104c0,-2187 -722,-4168 -4064,-4168 -3342,0 -4312,1857 -4312,4024l0 2352c0,2475 1238,4084 4497,4084 1403,0 2869,-309 3776,-639l-433 -2228c-888,268 -2125,433 -3054,433 -1361,0 -1815,-309 -1815,-1465l0 -289 5405 0zm-2805 -2228l-2600 0 0 -433c0,-702 330,-1280 1361,-1280 1032,0 1239,578 1239,1280l0 433zm13884 2187l0 -2599c0,-2249 -867,-3632 -3095,-3632 -1093,0 -2042,248 -2847,558l0 -4870 -2971 413 0 14029c1383,227 3013,330 4085,330 4147,0 4828,-1835 4828,-4229zm-5942 -3095c557,-289 1258,-556 1898,-556 784,0 1073,412 1073,1072l0 2600c0,949 -269,1630 -1754,1630 -412,0 -784,0 -1217,-42l0 -4704zm12131 7324c3570,0 4539,-2001 4539,-4064l0 -2331c0,-2063 -969,-4065 -4539,-4065 -3569,0 -4539,2002 -4539,4065l0 2331c0,2063 970,4064 4539,4064zm0 -2496c-1073,0 -1568,-536 -1568,-1485l0 -2497c0,-949 495,-1485 1568,-1485 1073,0 1568,536 1568,1485l0 2497c0,949 -495,1485 -1568,1485zm10729 2496c3568,0 4538,-2001 4538,-4064l0 -2331c0,-2063 -970,-4065 -4538,-4065 -3570,0 -4539,2002 -4539,4065l0 2331c0,2063 969,4064 4539,4064zm0 -2496c-1074,0 -1569,-536 -1569,-1485l0 -2497c0,-949 495,-1485 1569,-1485 1072,0 1568,536 1568,1485l0 2497c0,949 -496,1485 -1568,1485zm9675 2290l0 -14566 -2971 413 0 14153 2971 0zm392 -5054l2682 5054 3177 0 -2764 -5054 2640 -4993 -3176 0 -2559 4993z"/>
  </g>
 </g>
</svg>
